<svg id="visual" viewBox="0 0 900 450" width="900" height="450" xmlns="http://www.w3.org/2000/svg" xmlns:xlink="http://www.w3.org/1999/xlink" version="1.1"><path d="M0 222L21.5 229.2C43 236.3 86 250.7 128.8 252C171.7 253.3 214.3 241.7 257.2 230C300 218.3 343 206.7 385.8 214.2C428.7 221.7 471.3 248.3 514.2 265.3C557 282.3 600 289.7 642.8 277.7C685.7 265.7 728.3 234.3 771.2 225.5C814 216.7 857 230.3 878.5 237.2L900 244L900 451L878.5 451C857 451 814 451 771.2 451C728.3 451 685.7 451 642.8 451C600 451 557 451 514.2 451C471.3 451 428.7 451 385.8 451C343 451 300 451 257.2 451C214.3 451 171.7 451 128.8 451C86 451 43 451 21.5 451L0 451Z" fill="#53c6e0"></path><path d="M0 254L21.5 263.2C43 272.3 86 290.7 128.8 294.7C171.7 298.7 214.3 288.3 257.2 286.8C300 285.3 343 292.7 385.8 289.3C428.7 286 471.3 272 514.2 265.8C557 259.7 600 261.3 642.8 264.5C685.7 267.7 728.3 272.3 771.2 278.7C814 285 857 293 878.5 297L900 301L900 451L878.5 451C857 451 814 451 771.2 451C728.3 451 685.7 451 642.8 451C600 451 557 451 514.2 451C471.3 451 428.7 451 385.8 451C343 451 300 451 257.2 451C214.3 451 171.7 451 128.8 451C86 451 43 451 21.5 451L0 451Z" fill="#48bad5"></path><path d="M0 288L21.5 284.2C43 280.3 86 272.7 128.8 276.3C171.7 280 214.3 295 257.2 293.7C300 292.3 343 274.7 385.8 265.8C428.7 257 471.3 257 514.2 270.2C557 283.3 600 309.7 642.8 318.5C685.7 327.3 728.3 318.7 771.2 310.3C814 302 857 294 878.5 290L900 286L900 451L878.5 451C857 451 814 451 771.2 451C728.3 451 685.7 451 642.8 451C600 451 557 451 514.2 451C471.3 451 428.7 451 385.8 451C343 451 300 451 257.2 451C214.3 451 171.7 451 128.8 451C86 451 43 451 21.5 451L0 451Z" fill="#3daec9"></path><path d="M0 327L21.5 329.3C43 331.7 86 336.3 128.8 339.8C171.7 343.3 214.3 345.7 257.2 344.7C300 343.7 343 339.3 385.8 332.3C428.7 325.3 471.3 315.7 514.2 313.8C557 312 600 318 642.8 326.2C685.7 334.3 728.3 344.7 771.2 349.3C814 354 857 353 878.5 352.5L900 352L900 451L878.5 451C857 451 814 451 771.2 451C728.3 451 685.7 451 642.8 451C600 451 557 451 514.2 451C471.3 451 428.7 451 385.8 451C343 451 300 451 257.2 451C214.3 451 171.7 451 128.8 451C86 451 43 451 21.5 451L0 451Z" fill="#32a2be"></path><path d="M0 342L21.5 340.5C43 339 86 336 128.8 333.7C171.7 331.3 214.3 329.7 257.2 330.8C300 332 343 336 385.8 342.8C428.7 349.7 471.3 359.3 514.2 366.7C557 374 600 379 642.8 378.5C685.7 378 728.3 372 771.2 362.3C814 352.7 857 339.3 878.5 332.7L900 326L900 451L878.5 451C857 451 814 451 771.2 451C728.3 451 685.7 451 642.8 451C600 451 557 451 514.2 451C471.3 451 428.7 451 385.8 451C343 451 300 451 257.2 451C214.3 451 171.7 451 128.8 451C86 451 43 451 21.5 451L0 451Z" fill="#2697b3"></path><path d="M0 386L21.5 388.7C43 391.3 86 396.7 128.8 393.7C171.7 390.7 214.3 379.3 257.2 379.5C300 379.7 343 391.3 385.8 394.8C428.7 398.3 471.3 393.7 514.2 392.7C557 391.7 600 394.3 642.8 389C685.7 383.7 728.3 370.3 771.2 370.8C814 371.3 857 385.7 878.5 392.8L900 400L900 451L878.5 451C857 451 814 451 771.2 451C728.3 451 685.7 451 642.8 451C600 451 557 451 514.2 451C471.3 451 428.7 451 385.8 451C343 451 300 451 257.2 451C214.3 451 171.7 451 128.8 451C86 451 43 451 21.5 451L0 451Z" fill="#178ba8"></path><path d="M0 398L21.5 398.5C43 399 86 400 128.8 403.3C171.7 406.7 214.3 412.3 257.2 416.7C300 421 343 424 385.8 420.5C428.7 417 471.3 407 514.2 401C557 395 600 393 642.8 395C685.7 397 728.3 403 771.2 408C814 413 857 417 878.5 419L900 421L900 451L878.5 451C857 451 814 451 771.2 451C728.3 451 685.7 451 642.8 451C600 451 557 451 514.2 451C471.3 451 428.7 451 385.8 451C343 451 300 451 257.2 451C214.3 451 171.7 451 128.8 451C86 451 43 451 21.5 451L0 451Z" fill="#00809d"></path></svg>